# xmcd
#
# Track frame offsets:
#	150
#	18632
#	34425
#	52080
#	71702
#	91340
#	105952
#	121280
#	138855
#	158205
#	171897
#	183952
#	200530
#	217517
#	234672
#	250477
#	266072
#
# Disc length: 3767 seconds
#
# Revision: 2
# Processed by: cddbd v1.5.2PL0 Copyright (c) Steve Scherf et al.
# Submitted via: EasyCDDAExtractor 15.3.0.1
#
DISCID=f10eb511
DTITLE=Daniela Romo - Mis Mejores Canciones - 17 Super Exitos
DYEAR=1992
DGENRE=Latin
TTITLE0=Quiero Amanecer Con Alguien
TTITLE1=De Mi Enamorate
TTITLE2=Yo No Te Pido La Luna (Non Voglio Mica La Luna)
TTITLE3=Duele
TTITLE4=Todo, Todo, Todo
TTITLE5=Nadie Entiende
TTITLE6=Tampoco Fuiste Tu
TTITLE7=Explorame
TTITLE8=La Guirnalda
TTITLE9=Prometes
TTITLE10=Celos
TTITLE11=La Ocasion Para Amarnos
TTITLE12=Nada Me Falta, Nada Me Sobra
TTITLE13=Dimelo
TTITLE14=Gitana
TTITLE15=Balada Por Un Amor (Holding On To Love)
TTITLE16=Amada Mas Que Nunca
EXTD=
EXTT0=
EXTT1=
EXTT2=
EXTT3=
EXTT4=
EXTT5=
EXTT6=
EXTT7=
EXTT8=
EXTT9=
EXTT10=
EXTT11=
EXTT12=
EXTT13=
EXTT14=
EXTT15=
EXTT16=
PLAYORDER=
